<svg width="839" height="991" viewBox="0 0 839 991" fill="none" xmlns="http://www.w3.org/2000/svg">
<path d="M469.429 647.56L462.533 656.181L418.498 711.189L374.475 656.181L367.521 647.49C372.538 640.905 377.551 634.312 382.561 627.711H454.366C459.383 634.343 464.404 640.959 469.429 647.56Z" fill="white"/>
<path d="M645.86 578.99C625.891 596.889 574.763 554.055 552.885 575.51C542.13 586.059 541.838 608.825 549.405 623.212C557.265 638.162 569.635 636.622 575.262 649.567C582.85 666.978 570.394 692.639 554.88 705.248C531.777 724.014 492 721.835 458.392 697.29L494.168 651.551L461.352 608.294H399.263V608.197H372.702L339.896 651.453L375.673 697.193C342.065 721.727 302.32 723.917 279.185 705.15C263.66 692.542 251.225 666.88 258.792 649.469C264.43 636.46 276.8 638.064 284.649 623.114C292.238 608.706 291.934 585.928 281.169 575.412C259.291 553.968 208.174 596.802 188.194 578.892C167.118 560.007 187.109 480.031 232.448 465.059C254.597 457.741 277.916 467.563 284.215 470.219C320.447 485.473 337.067 521.369 353.264 515.026C355.326 514.313 357.109 512.966 358.359 511.178C369.775 493.832 324.523 426.713 261.286 394.211C234.269 380.334 215.893 378.892 196.151 356.678C181.515 340.21 174.74 321.986 171.292 308.977C179.045 313.556 187.23 317.362 195.728 320.338C248.157 338.768 282.784 314.657 322.463 334.02C330.388 337.89 342.531 345.458 354.532 361.373C361.387 355.988 367.114 349.305 371.385 341.706C375.656 334.107 378.388 325.741 379.424 317.086C385.612 321.312 391.432 326.052 396.824 331.255C402.573 336.829 407.802 342.914 412.446 349.436L417.087 358.109L421.672 349.512C430.698 336.88 441.889 325.945 454.728 317.216C456.82 334.68 465.761 350.598 479.587 361.47C491.577 345.555 503.72 337.999 511.655 334.128C551.367 314.755 585.994 338.909 638.423 320.403C646.899 317.413 655.062 313.601 662.794 309.02C659.358 322.029 652.582 340.275 637.935 356.722C618.193 378.946 599.828 380.377 572.811 394.265C509.574 426.789 464.322 493.853 475.738 511.221C476.987 513.013 478.771 514.364 480.834 515.081C497.031 521.412 513.65 485.516 549.871 470.263C556.181 467.607 579.49 457.784 601.649 465.113C646.923 480.117 666.936 560.094 645.86 578.99Z" fill="white"/>
<path d="M100.023 203C113.447 216.284 125.662 230.749 136.522 246.221C153.55 270.605 156.555 282.465 172.35 291.244C187.574 299.751 203.53 299.237 215.069 298.855C241.481 297.999 247.822 288.455 267.433 289.16C278.451 289.562 294.407 293.187 313.598 309.245C305.533 291.096 292.661 275.524 276.388 264.232C240.961 239.918 202.789 246.05 194.395 247.57C199.142 254.273 205.193 259.938 212.181 264.223C219.169 268.508 226.949 271.323 235.051 272.498C225.325 275.639 210.842 278.538 197.16 272.498C174.744 262.671 174.664 237.502 151.707 219.209C142.111 211.618 126.406 203.493 100.023 203Z" fill="white"/>
<path d="M235.202 432.751C230.811 433.048 226.474 433.889 222.29 435.255C213.728 438.236 205.975 443.164 199.642 449.652C124.837 424.403 75.3897 368.342 74.6959 310.634C74.5441 297.82 76.6581 273.589 95.0775 245.012C101.488 285.312 117.589 323.452 141.997 356.154C166.405 388.856 198.39 415.141 235.202 432.751Z" fill="white"/>
<path d="M8.54272 378.587C27.1573 413.778 48.1786 427.926 64.2346 434.268C81.3639 441.044 88.3024 437.131 117.292 444.709C144.103 451.723 177.125 460.353 180.573 478.024C184.096 496.129 153.079 505.767 149.003 535.938C146.553 554.065 154.998 570.327 163.216 581.927C144.464 569.057 123.835 559.165 102.06 552.601C75.2386 544.568 62.229 546.4 45.8802 536.188C32.8707 528.057 17.2808 512.022 8.08739 477.027C10.8302 480.734 25.6178 500.053 52.0923 503.382C64.6492 504.863 77.3639 502.6 88.6385 496.877C81.3856 495.218 46.9427 486.534 24.5012 452.428C2.93775 419.774 7.32849 386.328 8.54272 378.587Z" fill="white"/>
<path d="M0 567.562C49.0245 601.051 92.2705 613.378 124.914 617.898C180.757 625.628 235.745 614.646 241.751 632.317C245.502 643.354 226.779 652.851 225.098 675.075C223.602 694.741 239.691 711.936 253.188 723.297C243.225 724.826 228.188 725.617 212.414 719.373C198.917 714.028 198.32 709.247 188.563 706.363C165.244 699.577 150.619 722.311 125.423 723.709C112.414 724.468 93.6691 719.698 69.7314 693.874C82.1565 697.344 95.1942 698.03 107.915 695.882C120.635 693.735 132.725 688.807 143.322 681.45C111.453 676.957 81.3626 664.03 56.1648 644.008C30.9669 623.985 11.5766 597.593 0 567.562Z" fill="white"/>
<path d="M315.332 742.703C315.332 742.703 208.686 748.666 190.049 857.545C190.049 857.545 203.471 836.665 226.585 836.665C226.585 836.665 206.452 906.049 278.796 949.284C278.796 949.274 218.389 867.975 315.332 742.703Z" fill="white"/>
<path d="M518.14 909.844C513.151 928.639 504.255 946.171 492.034 961.297C492.034 961.297 502.225 928.491 464.312 879.987C464.312 879.987 472.021 942.064 429.154 982.643C426.082 985.576 422.823 988.307 419.397 990.817C415.931 988.27 412.629 985.507 409.51 982.546C366.654 941.956 374.362 879.889 374.362 879.889C336.417 928.361 346.641 961.199 346.641 961.199C334.423 946.072 325.532 928.54 320.546 909.746C309.553 867.628 317.749 813.887 354.848 776.994C368.189 763.824 384.206 753.675 401.812 747.235C407.452 745.14 413.216 743.399 419.072 742.02C425.099 743.411 431.031 745.189 436.83 747.344C454.436 753.773 470.45 763.919 483.784 777.092C520.98 813.985 529.122 867.725 518.14 909.844Z" fill="white"/>
<path d="M603.493 432.848C607.877 433.147 612.207 433.989 616.384 435.353C624.946 438.333 632.699 443.262 639.031 449.75C713.836 424.5 763.284 368.44 763.978 310.732C764.129 297.917 762.015 273.687 743.596 245.109C737.188 285.407 721.09 323.546 696.686 356.248C672.281 388.95 640.301 415.236 603.493 432.848Z" fill="white"/>
<path d="M830.141 378.685C811.527 413.876 790.505 428.024 774.46 434.366C757.32 441.142 750.392 437.228 721.392 444.806C694.581 451.82 661.559 460.45 658.122 478.121C654.588 496.226 685.605 505.864 689.692 536.047C692.131 554.108 683.697 570.457 675.522 582.035C694.284 569.153 714.929 559.257 736.722 552.699C763.543 544.665 776.542 546.498 792.901 536.296C805.911 528.165 821.501 512.131 830.683 477.124C827.951 480.843 813.153 500.162 786.678 503.479C774.125 504.955 761.416 502.692 750.143 496.975C757.396 495.316 791.828 486.621 814.28 452.525C835.757 419.871 831.366 386.426 830.141 378.685Z" fill="white"/>
<path d="M838.696 567.66C789.661 601.148 746.48 613.486 713.782 618.028C657.939 625.758 602.952 614.776 596.945 632.447C593.184 643.495 611.917 652.981 613.598 675.205C615.083 694.872 598.995 712.066 585.508 723.428C595.471 724.967 610.508 725.748 626.271 719.514C639.78 714.169 640.365 709.377 650.122 706.504C673.431 699.718 688.067 722.452 713.262 723.85C726.272 724.609 745.016 719.85 768.943 694.026C754.827 697.921 739.965 698.26 725.686 695.013C714.806 692.511 704.503 687.956 695.331 681.591C727.213 677.101 757.315 664.172 782.522 644.14C807.728 624.109 827.122 597.704 838.696 567.66Z" fill="white"/>
<path d="M522.879 742.703C522.879 742.703 629.525 748.666 648.161 857.545C648.161 857.545 634.739 836.665 611.626 836.665C611.626 836.665 631.758 906.049 559.414 949.284C559.414 949.273 619.822 867.975 522.879 742.703Z" fill="white"/>
<path d="M482.789 199.717C471.626 217.265 464.065 223.118 450.217 239.881C441.206 250.804 432.88 262.27 425.285 274.213C422.869 278.008 420.434 282.007 417.977 286.21C415.508 281.967 413.052 277.944 410.609 274.143C403.024 262.176 394.701 250.69 385.687 239.751C371.839 222.987 364.268 217.134 353.115 199.526C341.961 181.917 331.333 165.334 331.757 146.399C332.291 122.334 350.561 107.018 365.066 90.5966C379.197 74.6574 395.872 51.6387 410.417 18.5336C413.001 12.6809 415.501 6.50303 417.917 0C420.339 6.54325 422.849 12.758 425.447 18.6442C440.002 51.7494 456.737 74.748 470.798 90.6871C485.313 107.109 503.592 122.425 504.107 146.489C504.561 165.455 493.913 182.209 482.789 199.717Z" fill="white"/>
<path d="M338.45 71.5526C298.427 136.158 300.112 171.539 310.695 192.178C320.734 211.798 340.226 220.898 367.607 261.499C376.063 274.063 383.641 287.195 390.287 300.801C374.103 283.538 354.258 270.11 332.205 261.499C335.101 264.039 352.504 279.82 350.95 302.161C350.546 307.542 349.125 312.797 346.763 317.65C325.244 267.576 298.669 247.925 278.057 239.319C238.236 222.682 202.39 239.612 180.194 213.411C166.261 196.944 166.826 174.16 167.018 166.541C167.754 137.438 183.665 117.989 188.538 112.456C184.764 142.426 190.263 153.471 196.861 157.522C208.504 164.667 224.676 150.71 247.528 158.207C255.118 160.774 262.02 165.042 267.706 170.683C269.027 149.197 276.363 128.513 288.877 110.987C301.392 93.4609 318.582 79.7975 338.49 71.5526H338.45Z" fill="white"/>
<path d="M493.079 72.6367C533.102 137.242 531.417 172.624 520.834 193.262C510.795 212.882 491.303 221.982 463.922 262.584C455.466 275.147 447.888 288.279 441.242 301.885C457.426 284.622 477.271 271.194 499.324 262.584C496.428 265.123 479.025 280.904 480.579 303.245C480.983 308.626 482.404 313.882 484.766 318.734C506.285 268.66 532.86 249.01 553.472 240.404C593.293 223.766 629.139 240.696 651.335 214.495C665.268 198.028 664.703 175.244 664.511 167.625C663.775 138.522 647.864 119.073 642.991 113.54C646.765 143.51 641.266 154.555 634.668 158.606C623.025 165.751 606.853 151.794 584.001 159.291C576.411 161.859 569.509 166.126 563.823 171.767C562.502 150.281 555.166 129.597 542.652 112.071C530.137 94.545 512.947 80.8816 493.039 72.6367H493.079Z" fill="white"/>
<path d="M733.957 202.73C720.533 216.015 708.318 230.479 697.458 245.951C680.431 270.335 677.426 282.195 661.631 290.974C646.406 299.481 630.45 298.968 618.912 298.585C592.499 297.73 586.159 288.185 566.547 288.89C555.53 289.293 539.574 292.917 520.383 308.975C528.447 290.826 541.319 275.255 557.593 263.962C593.02 239.649 631.191 245.78 639.585 247.3C634.838 254.003 628.788 259.669 621.8 263.954C614.812 268.238 607.031 271.053 598.929 272.228C608.655 275.369 623.138 278.269 636.821 272.228C659.237 262.402 659.317 237.233 682.274 218.94C691.869 211.348 707.575 203.224 733.957 202.73Z" fill="white"/>
<path d="M353.946 755.866C350.748 754.89 331.906 748.841 322.907 729.543C321.761 727.099 320.829 724.56 320.121 721.954C329.31 722.069 338.458 720.722 347.224 717.965C346.756 720.985 346.52 724.037 346.52 727.093C346.558 737.153 349.111 747.044 353.946 755.866Z" fill="white"/>
<path d="M377.075 746.892C377.421 748.651 378.058 750.341 378.961 751.89C371.512 756.186 364.516 761.224 358.081 766.927C357.25 760.026 358.58 753.038 361.886 746.925C368.944 733.915 381.888 730.066 384.154 729.438C383.709 729.763 375.156 736.983 377.075 746.892Z" fill="white"/>
<path d="M476.16 766.925C469.616 761.155 462.5 756.069 454.922 751.747C456.074 749.996 456.874 748.037 457.275 745.979C459.194 736.07 450.651 728.861 450.206 728.492C452.461 729.121 465.384 732.991 472.463 745.979C475.921 752.38 477.218 759.727 476.16 766.925Z" fill="white"/>
<path d="M514.195 722.063C513.504 724.631 512.59 727.135 511.463 729.543C502.464 748.841 483.622 754.89 480.413 755.866C485.261 747.044 487.825 737.149 487.872 727.082C487.879 724.063 487.651 721.047 487.189 718.062C495.926 720.802 505.039 722.152 514.195 722.063Z" fill="white"/>
</svg>
