<svg width="5720" height="3554" viewBox="0 0 5720 3554" fill="none" xmlns="http://www.w3.org/2000/svg">
<path fill-rule="evenodd" clip-rule="evenodd" d="M2174.1 2415.13C2142.5 2415.13 2111.65 2415.13 2082.5 2415.13C2025.5 2415.13 1984.65 2414.82 1935 2406.52L2424.08 1917.45H2671.91H3005.86H3422.22L3543.71 2038.94L3887.02 2382.27C3849.42 2404.88 3805.38 2417.88 3758.32 2417.88V2419.15L2526 2415.13L2508.36 2415.13H2174.1Z" fill="white"/>
<path d="M1479.43 811.863C1358.47 918.803 1265.9 1057.11 1214.49 1214.06L0 0H667.279L1479.43 811.863Z" fill="white"/>
<path d="M5261.58 581.68L4759.88 1083.38L4365.28 1477.98C4239.67 1367.33 4083.58 1290.47 3911.21 1261.61L4089.44 1083.38L4591.13 581.68H5261.58Z" fill="white"/>
<path fill-rule="evenodd" clip-rule="evenodd" d="M4363.58 2858.83C4201.92 3000.52 3990.15 3086.4 3758.32 3086.4H1502.66L1561.61 3027.48L2004.28 2585.55L2338.15 2585.38L2921.76 2585.12L2939.67 2585.1L3758.32 2584.7C3851.57 2584.7 3937.66 2554.1 4007.13 2502.36L4363.58 2858.83Z" fill="white"/>
<path fill-rule="evenodd" clip-rule="evenodd" d="M3839.61 1083.38H2087.68C1993.04 1083.38 1905.75 1114.92 1835.76 1168.07C1735.45 1244.2 1670.66 1364.74 1670.66 1500.42C1670.66 1600.12 1705.63 1691.63 1764 1763.37C1782.14 1785.67 1802.53 1806.07 1824.83 1824.19L1834.67 1834.02L1837.46 1836.81L1482.56 2191.72C1372.41 2095.23 1285.53 1972.83 1231.43 1834.02C1191.1 1730.62 1168.96 1618.11 1168.96 1500.42C1168.96 1400.44 1184.95 1304.16 1214.49 1214.05C1265.9 1057.11 1358.48 918.799 1479.43 811.86C1641.45 668.621 1854.42 581.68 2087.68 581.68H4340.94L3839.61 1083.38Z" fill="white"/>
<g filter="url(#filter0_d_2285_821)">
<path d="M5007.75 3503.67V3502.98L4368.6 2863.84L4363.59 2858.83L4007.14 2502.35L3923.93 2419.14L3887.03 2382.26L3543.72 2038.93L3423.61 1918.83C3423.98 1918.37 3424.32 1917.9 3424.67 1917.44H3422.22L3338.8 1834.02L3422.18 1750.64H3758.33C3852.2 1750.64 3938.85 1781.66 4008.54 1834.02C4008.69 1834.12 4008.81 1834.23 4008.95 1834.31L4008.54 1834.72L4094.01 1920.19L4592.96 2419.14L4630.6 2456.78L4631.56 2457.73L5677.51 3503.67H5007.75Z" fill="white"/>
</g>
<path fill-rule="evenodd" clip-rule="evenodd" d="M4677.05 2167.66V2168.3C4677.05 2171.37 4677.05 2174.43 4676.95 2177.5C4676.95 2179.42 4676.95 2181.33 4676.86 2183.23C4676.86 2186.19 4676.76 2189.15 4676.7 2192.11C4676.6 2194.83 4676.53 2197.52 4676.45 2200.23C4673.49 2289.82 4657.94 2376.22 4631.51 2457.74L4630.56 2456.79L4592.92 2419.15L4093.97 1920.2C4093.28 1919.27 4092.61 1918.35 4091.92 1917.44C4068.3 1885.99 4040.35 1858 4008.91 1834.31L4009.21 1834.02H4008.5C3938.81 1781.66 3852.16 1750.64 3758.28 1750.64H2418.55L2300.29 1632.42L1955.63 1287.89C1993.96 1263.99 2039.22 1250.2 2087.69 1250.2H3672.86L3669.92 1253.16C3683.19 1251.88 3696.54 1250.91 3709.96 1250.2H3806.69C3842.1 1252.03 3876.99 1255.88 3911.21 1261.61C4083.58 1290.48 4239.68 1367.33 4365.3 1477.98C4451.99 1554.34 4524.16 1646.79 4577.17 1750.64C4590.96 1777.68 4603.46 1805.51 4614.58 1834.02C4625.18 1861.2 4634.54 1889.03 4642.55 1917.44C4657.3 1969.64 4667.54 2023.74 4672.84 2079.27C4673.11 2081.92 4673.34 2084.57 4673.57 2087.22C4673.82 2089.87 4674.05 2092.52 4674.23 2095.17C4674.37 2097.14 4674.51 2099.09 4674.67 2101.03C4674.76 2102.21 4674.83 2103.39 4674.9 2104.57C4675.04 2106.42 4675.16 2108.26 4675.27 2110.1C4675.48 2113.47 4675.66 2116.83 4675.83 2120.23C4676.04 2124.08 4676.2 2127.97 4676.36 2131.84V2132.17C4676.66 2140.06 4676.86 2147.97 4676.97 2155.9V2156.44C4677.06 2160.19 4677.06 2163.92 4677.06 2167.66H4677.05Z" fill="white"/>
<g filter="url(#filter1_d_2285_821)">
<path d="M2504.72 1836.8L2424.07 1917.45L1255.11 3086.4H587.855L1482.56 2191.72L1837.46 1836.82L1834.67 1834.03H1837.4C1833.16 1830.84 1828.95 1827.54 1824.83 1824.19L1764 1763.38C1705.63 1691.64 1670.66 1600.12 1670.66 1500.43C1670.66 1364.75 1735.45 1244.2 1835.76 1168.07L1955.63 1287.89L2300.28 1632.42L2418.55 1750.64L2420.14 1752.24L2501.95 1834.03L2504.72 1836.8Z" fill="white"/>
</g>
<defs>
<filter id="filter0_d_2285_821" x="3260.8" y="1680.64" width="2458.71" height="1873.02" filterUnits="userSpaceOnUse" color-interpolation-filters="sRGB">
<feFlood flood-opacity="0" result="BackgroundImageFix"/>
<feColorMatrix in="SourceAlpha" type="matrix" values="0 0 0 0 0 0 0 0 0 0 0 0 0 0 0 0 0 0 127 0" result="hardAlpha"/>
<feOffset dx="-18" dy="-10"/>
<feGaussianBlur stdDeviation="30"/>
<feComposite in2="hardAlpha" operator="out"/>
<feColorMatrix type="matrix" values="0 0 0 0 0.137255 0 0 0 0 0.133333 0 0 0 0 0.117647 0 0 0 0.8 0"/>
<feBlend mode="normal" in2="BackgroundImageFix" result="effect1_dropShadow_2285_821"/>
<feBlend mode="normal" in="SourceGraphic" in2="effect1_dropShadow_2285_821" result="shape"/>
</filter>
<filter id="filter1_d_2285_821" x="545.855" y="1118.07" width="2036.86" height="2038.34" filterUnits="userSpaceOnUse" color-interpolation-filters="sRGB">
<feFlood flood-opacity="0" result="BackgroundImageFix"/>
<feColorMatrix in="SourceAlpha" type="matrix" values="0 0 0 0 0 0 0 0 0 0 0 0 0 0 0 0 0 0 127 0" result="hardAlpha"/>
<feOffset dx="18" dy="10"/>
<feGaussianBlur stdDeviation="30"/>
<feComposite in2="hardAlpha" operator="out"/>
<feColorMatrix type="matrix" values="0 0 0 0 0.137255 0 0 0 0 0.133333 0 0 0 0 0.117647 0 0 0 0.8 0"/>
<feBlend mode="normal" in2="BackgroundImageFix" result="effect1_dropShadow_2285_821"/>
<feBlend mode="normal" in="SourceGraphic" in2="effect1_dropShadow_2285_821" result="shape"/>
</filter>
</defs>
</svg>
