<svg width="370" height="150" viewBox="0 0 370 150" fill="none" xmlns="http://www.w3.org/2000/svg">
<path d="M184.604 5.36426C185.452 1.83639 188.856 -0.458317 192.444 0.0771484C196.033 0.612808 198.618 3.80192 198.398 7.42383L194.392 73.5186L217.621 62.6152C220.589 61.2222 224.127 62.0763 226.133 64.6699C228.138 67.2635 228.075 70.9016 225.98 73.4238L205.189 98.457L241.15 130.821C244.024 133.408 244.256 137.834 241.67 140.707C239.084 143.58 234.658 143.813 231.784 141.228L196.836 109.773L190.083 143.541C189.361 147.149 185.969 149.583 182.319 149.11C178.67 148.637 176.01 145.417 176.232 141.744L179.604 86.1035L170.807 122.72C170.251 125.03 168.563 126.901 166.321 127.688L106.321 148.772C103.318 149.828 99.9807 148.724 98.1992 146.086C96.4178 143.448 96.6405 139.939 98.7412 137.548L133.535 97.9414L104.669 95.6172L69.7598 146.146C68.5532 147.893 66.6191 148.998 64.502 149.15C62.3847 149.302 60.3128 148.485 58.8691 146.929L1.86816 85.4912C-0.0946351 83.3756 -0.557161 80.2714 0.702148 77.6748C1.96162 75.0785 4.68519 73.5215 7.56152 73.7529L97.7422 81.0137L131.161 32.6426L24.9131 62.8174C21.1943 63.8734 17.3228 61.7149 16.2666 57.9961C15.2107 54.2774 17.3694 50.407 21.0879 49.3506L146.088 13.8506C148.929 13.0436 151.972 14.1072 153.691 16.5088C155.411 18.9102 155.439 22.1323 153.76 24.5625L113.861 82.3115L148.562 85.1064C151.201 85.319 153.494 87.0023 154.488 89.4561C155.482 91.9099 155.007 94.7151 153.26 96.7041L126.909 126.697L158.084 115.742L184.604 5.36426ZM308.293 66.2139C310.36 64.1551 313.503 63.5887 316.169 64.8213L365.895 87.8076C368.363 88.9488 369.947 91.417 369.957 94.1367C369.967 96.8562 368.401 99.3353 365.94 100.494L295.85 133.509C293.284 134.717 290.243 134.258 288.148 132.347C286.054 130.435 285.319 127.449 286.288 124.784L294.805 101.363L275.88 121.79C273.79 124.045 270.473 124.674 267.703 123.339C264.934 122.003 263.361 119.016 263.825 115.977L268.596 84.7256L235.527 97.5049L257.675 117.373C260.553 119.955 260.792 124.38 258.211 127.258C255.629 130.135 251.204 130.376 248.326 127.795L217.68 100.304C215.868 98.6779 215.03 96.2268 215.469 93.832C215.908 91.4372 217.559 89.4414 219.83 88.5635L274.814 67.3145C277.143 66.4146 279.775 66.8223 281.722 68.3857C283.668 69.9493 284.634 72.4314 284.257 74.8994L281.104 95.5508L308.097 66.417L308.293 66.2139ZM63.1992 131.013L88.5498 94.3193L24.3604 89.1494L63.1992 131.013ZM305.25 113.604L346.403 94.2207L317.207 80.7246L305.25 113.604ZM143.013 57.4512C143.931 56.7216 145.067 56.3578 146.119 56.4795C147.174 56.599 148.061 57.1945 148.633 58.0947C148.849 58.4334 149.065 58.7726 149.281 59.1113C150.673 61.2948 152.064 63.4787 153.456 65.6621C154.474 64.0813 155.492 62.5008 156.51 60.9199C156.727 60.5821 156.945 60.244 157.162 59.9062C157.358 59.6035 157.684 59.3828 158.049 59.2832C158.415 59.1843 158.79 59.2147 159.111 59.377C159.432 59.5393 159.678 59.8237 159.815 60.1768C159.952 60.5296 159.968 60.9228 159.84 61.2598C159.697 61.6351 159.553 62.0104 159.41 62.3857C158.216 65.5193 157.022 68.6535 155.827 71.7871C154.665 73.6232 152.538 74.0665 151.356 72.2432C148.642 69.473 145.927 66.7018 143.213 63.9316C142.932 63.6448 142.65 63.3581 142.369 63.0713C141.622 62.3105 141.241 61.3127 141.363 60.2578C141.483 59.2051 142.094 58.1808 143.013 57.4512Z" fill="url(#paint0_linear_2297_841)"/>
<defs>
<linearGradient id="paint0_linear_2297_841" x1="-0.155822" y1="96.4637" x2="365.998" y2="93.4553" gradientUnits="userSpaceOnUse">
<stop stop-color="#7E51CC"/>
<stop offset="1" stop-color="#0E6BDD"/>
</linearGradient>
</defs>
</svg>
